<?xml version="1.0" standalone="no"?>
<!DOCTYPE svg PUBLIC "-//W3C//DTD SVG 20010904//EN"
 "http://www.w3.org/TR/2001/REC-SVG-20010904/DTD/svg10.dtd">
<svg version="1.0" xmlns="http://www.w3.org/2000/svg"
 width="173.000000pt" height="173.000000pt" viewBox="0 0 173.000000 173.000000"
 preserveAspectRatio="xMidYMid meet">
<metadata>
Created by potrace 1.11, written by Peter Selinger 2001-2013
</metadata>
<g transform="translate(0.000000,173.000000) scale(0.100000,-0.100000)"
fill="#000000" stroke="none">
<path d="M1098 1567 c-96 -27 -180 -101 -226 -197 -22 -46 -27 -69 -27 -141
l0 -87 -50 5 c-90 9 -236 52 -324 94 -107 52 -189 110 -290 205 l-77 73 -18
-49 c-49 -137 -18 -281 86 -394 9 -10 15 -23 12 -27 -4 -7 -95 15 -116 27 -34
21 4 -125 52 -198 36 -54 81 -92 153 -130 l52 -28 -55 0 c-75 0 -84 -8 -66
-51 38 -85 122 -146 281 -203 16 -6 9 -13 -45 -43 -119 -67 -214 -91 -415
-102 l-30 -1 30 -20 c58 -39 239 -103 339 -120 284 -48 592 25 794 187 243
196 374 456 406 804 4 45 9 54 84 135 68 73 94 111 71 102 -62 -23 -121 -39
-134 -36 -11 2 -4 16 26 53 22 28 49 68 60 89 20 36 20 38 2 31 -10 -4 -59
-22 -110 -41 l-91 -33 -38 25 c-88 60 -134 77 -213 81 -43 1 -96 -3 -123 -10z"/>
</g>
</svg>
